<svg width="79" height="79" viewBox="0 0 79 79" fill="none" xmlns="http://www.w3.org/2000/svg">
<path d="M1.5 12C1.5 6.20101 6.20101 1.5 12 1.5H67C72.799 1.5 77.5 6.20101 77.5 12V67C77.5 72.799 72.799 77.5 67 77.5H12C6.20101 77.5 1.5 72.799 1.5 67V12Z" fill="#D8E44A" stroke="black" stroke-width="3" stroke-miterlimit="2.3662" stroke-linejoin="round"/>
<rect width="3" height="30.8301" rx="1.5" transform="matrix(-0.0265637 -0.999647 0.999974 -0.0072135 21.0795 10.354)" fill="black"/>
<path d="M58.9396 64C60.6218 64 61.9998 62.6453 61.9998 60.9865V30.2476C61.9998 28.5888 60.6218 27.2341 58.9396 27.2341H29.0703L41.0577 64H58.9396Z" fill="#DBDBDB"/>
<path d="M58.9396 28.6165C59.3867 28.6165 59.8107 28.7915 60.1287 29.1049C60.4421 29.4136 60.6172 29.8191 60.6172 30.2476V60.9865C60.6172 61.415 60.4467 61.8205 60.1287 62.1292C59.8107 62.4426 59.3867 62.6177 58.9396 62.6177H42.0624L30.9737 28.6165H58.9396ZM58.9396 27.2341H29.0703L41.0577 64H58.9396C60.6218 64 61.9998 62.6453 61.9998 60.9865V30.2476C61.9998 28.5888 60.6218 27.2341 58.9396 27.2341Z" fill="#DCDCDC"/>
<path d="M38.2279 55.3142L41.0577 64L48.9248 55.3142H38.2279Z" fill="#4352B8"/>
<path d="M59.1424 39.9379V38.1362H50.4549V35.2241H47.6343V38.1362H42.09V39.9379H53.1234C52.5335 42.016 51.2292 43.979 49.9572 45.5042C47.7035 42.8362 47.6943 41.97 47.6943 41.97H45.353C45.353 41.97 45.4498 43.2694 48.6114 46.9741C47.5837 48.0247 46.8048 48.6467 46.8048 48.6467L47.5237 50.8953C47.5237 50.8953 48.6114 49.9599 49.971 48.5177C51.3352 49.9968 53.0957 51.7754 55.3724 53.895L56.8519 52.4159C54.4138 50.2042 52.6256 48.4486 51.3121 47.0386C53.0727 44.9558 54.8609 42.334 55.2388 39.9333H59.1378V39.9379H59.1424Z" fill="#607988"/>
<path d="M19.0601 18C17.3779 18 15.9998 19.3777 15.9998 21.0642V52.2592C15.9998 53.9411 17.3779 55.3188 19.0601 55.3188H48.9294L36.942 18H19.0601Z" fill="#4285F4"/>
<path d="M40.6244 27.2341H58.9396C60.6218 27.2341 61.9998 28.5888 61.9998 30.2476V48.6882L40.6244 27.2341Z" fill="url(#paint0_linear_18_53)"/>
<path d="M33.1168 37.8413C33.0016 39.2375 31.8079 41.3064 28.9182 41.3064C26.4157 41.3064 24.3878 39.2375 24.3878 36.6894C24.3878 34.1412 26.4157 32.0723 28.9182 32.0723C30.3423 32.0723 31.2917 32.6898 31.8355 33.192L33.7344 31.3673C32.4854 30.2154 30.8585 29.4966 28.9182 29.4966C24.9501 29.4966 21.7285 32.7174 21.7285 36.6848C21.7285 40.6521 24.9501 43.873 28.9182 43.873C33.0753 43.873 35.8221 40.9562 35.8221 36.8414C35.8221 36.2516 35.7484 35.8185 35.6516 35.3761H28.9228V37.8367L33.1168 37.8413Z" fill="#EEEEEE"/>
<path d="M39.9101 27.2341H58.9396C60.6218 27.2341 61.9998 28.5888 61.9998 30.2476V60.9865C61.9998 62.6453 60.6218 64 58.9396 64H41.0577M39.9101 27.2341L36.942 18H19.0601C17.3779 18 15.9998 19.3777 15.9998 21.0642V52.2592C15.9998 53.9411 17.3779 55.3188 19.0601 55.3188H24.2502M39.9101 27.2341L48.9098 55.3188M38.2279 55.3188L41.0577 64M38.2279 55.3188H48.9098M38.2279 55.3188H33.7545M41.0577 64L48.9098 55.3188" stroke="black" stroke-width="1.5" stroke-linecap="round" stroke-linejoin="round"/>
<circle cx="28.9999" cy="55.3" r="0.8" fill="black"/>
<ellipse rx="1.65" ry="1.69802" transform="matrix(0.999974 -0.0072135 0.0265637 0.999647 56.3951 8.70932)" fill="black"/>
<defs>
<linearGradient id="paint0_linear_18_53" x1="40.6244" y1="37.9611" x2="61.9998" y2="37.9611" gradientUnits="userSpaceOnUse">
<stop stop-color="white" stop-opacity="0.2"/>
<stop offset="1" stop-color="white" stop-opacity="0.02"/>
</linearGradient>
</defs>
</svg>
