<svg width="79" height="79" viewBox="0 0 79 79" fill="none" xmlns="http://www.w3.org/2000/svg">
<path d="M1.5 12C1.5 6.20101 6.20101 1.5 12 1.5H67C72.799 1.5 77.5 6.20101 77.5 12V67C77.5 72.799 72.799 77.5 67 77.5H12C6.20101 77.5 1.5 72.799 1.5 67V12Z" fill="#595959" stroke="black" stroke-width="3" stroke-miterlimit="2.3662" stroke-linejoin="round"/>
<rect width="2.5" height="19.1429" rx="1.25" transform="matrix(-0.283237 0.95905 -0.953389 -0.301744 37.0087 66.8381)" fill="black"/>
<ellipse rx="1.21465" ry="1.25" transform="matrix(-0.953389 -0.301744 0.283237 -0.95905 14.9332 61.1345)" fill="black"/>
<path d="M19.8563 18.0018C16.6721 18.0018 15.5001 18.9084 15.5001 21.3683V51.0397C15.4985 51.2987 15.514 51.5576 15.5465 51.8155C15.6185 52.353 15.6324 52.8725 16.2799 53.4638C16.3426 53.5229 17.0017 53.9027 17.0017 53.9027C17.3568 54.0371 17.6005 54.1356 17.9997 54.2611L37.3439 60.5157C38.3489 60.8722 38.7689 61.0102 39.4977 60.9994H39.5023C40.2311 61.0102 40.6511 60.8722 41.6561 60.5157L61.0003 54.2593C61.3995 54.1338 61.6432 54.0371 61.9983 53.9009C61.9983 53.9009 62.6574 53.5229 62.7201 53.4656C63.3699 52.8743 63.3815 52.353 63.4535 51.8173C63.4861 51.5588 63.5015 51.2993 63.4999 51.0397V21.3683C63.4999 18.9084 62.3255 18 59.1413 18L19.8563 18.0018ZM50.8768 23.5738H52.455C55.0961 23.5738 56.3726 24.5646 56.3726 26.6124V29.9807H53.1837V26.7558C53.1837 26.0946 52.7892 25.7883 51.9699 25.7883H51.4245C50.5728 25.7883 50.1782 26.0928 50.1782 26.754V37.1634C50.1782 37.8245 50.5728 38.1309 51.4245 38.1309H52.0326C52.8518 38.1309 53.2464 37.8245 53.2464 37.1634V33.444H56.4329V37.2834C56.4329 39.3331 55.1286 40.3472 52.4875 40.3472H50.8768C48.2357 40.3472 46.9314 39.3331 46.9314 37.2834V26.6375C46.9314 24.5879 48.2357 23.5756 50.8768 23.5756V23.5738ZM22.5949 23.7171H29.8221V25.9997H25.8441V30.6633H29.6689V32.9477H25.8441V37.9177H29.8824V40.202H22.5949V23.7171ZM31.4513 23.7171H36.5525C39.1936 23.7171 40.498 24.7276 40.498 26.7773V31.1578C40.498 33.2075 39.1936 34.2215 36.5525 34.2215H34.6982V40.202H31.449L31.4513 23.7171ZM41.9647 23.7171H45.2139V40.202H41.9647V23.7171ZM34.7005 25.9298V32.0071H36.035C36.8566 32.0071 37.2488 31.7007 37.2488 31.0396V26.8973C37.2488 26.238 36.8542 25.9298 36.035 25.9298H34.7005ZM26.0205 44.1096C26.4889 44.111 26.9533 44.1765 27.3921 44.3031C27.8069 44.432 28.1912 44.613 28.5293 44.8388L27.4803 45.817C27.2655 45.6742 27.0247 45.5565 26.7655 45.4677C26.4984 45.383 26.2117 45.3416 25.923 45.3458C25.6988 45.3444 25.477 45.3811 25.2732 45.4533C25.0765 45.5231 24.8998 45.6224 24.7533 45.7454C24.6029 45.8727 24.4841 46.0202 24.4029 46.1807C24.3155 46.3512 24.2714 46.5331 24.2729 46.7164V46.7308C24.2711 46.9205 24.3152 47.1089 24.4029 47.2862C24.4832 47.4506 24.6073 47.6001 24.7673 47.7251C24.9252 47.8477 25.1129 47.9451 25.3196 48.0118C25.5426 48.0825 25.7818 48.1179 26.0228 48.1157C26.3862 48.127 26.7457 48.0547 27.0556 47.9079V47.3005H25.7838V46.2882H28.7521V48.5368C28.385 48.7664 27.975 48.9518 27.536 49.0868C27.0313 49.2394 26.4928 49.3143 25.9509 49.3072C25.4737 49.3113 24.9998 49.2463 24.5537 49.1155C24.1422 48.9937 23.7654 48.8111 23.4444 48.578C23.1289 48.3479 22.8778 48.0705 22.7063 47.7628C22.5251 47.4344 22.4342 47.0805 22.4394 46.7236V46.7093C22.4351 46.3586 22.5244 46.011 22.7017 45.688C22.8719 45.3798 23.1178 45.1 23.4258 44.8639C23.7406 44.6242 24.1147 44.4359 24.5259 44.3103C24.9675 44.1752 25.4388 44.1077 25.9138 44.1114C25.9486 44.111 25.9834 44.111 26.0182 44.1114L26.0205 44.1096ZM53.7848 44.1239C54.2667 44.123 54.7459 44.1798 55.2052 44.2924C55.6329 44.4017 56.0316 44.5698 56.3818 44.7886L55.486 45.7669C55.2083 45.612 54.9035 45.4884 54.5809 45.3996C54.292 45.319 53.9875 45.2766 53.6804 45.2742C53.5108 45.2651 53.3418 45.2977 53.1976 45.3673C53.1484 45.3921 53.1079 45.4257 53.0795 45.4654C53.0512 45.5051 53.036 45.5496 53.0352 45.5949V45.6092C53.0337 45.6621 53.0513 45.7142 53.0862 45.7597C53.1309 45.8102 53.1916 45.8509 53.2626 45.878C53.3716 45.9221 53.4859 45.9581 53.6038 45.9855C53.7477 46.0213 53.9287 46.0571 54.1515 46.0947C54.49 46.1506 54.8234 46.2236 55.1495 46.3133C55.4208 46.3862 55.6772 46.4888 55.9107 46.6179C56.1126 46.7299 56.2772 46.8773 56.3911 47.0479C56.5069 47.2363 56.5633 47.4432 56.5559 47.6517V47.666C56.5616 47.9022 56.4973 48.1363 56.3679 48.3504C56.2428 48.5493 56.0611 48.7239 55.8364 48.861C55.5929 49.0084 55.3147 49.1179 55.0172 49.1835C54.67 49.2597 54.3104 49.2965 53.9496 49.2928C53.3891 49.2951 52.8321 49.2249 52.3018 49.085C51.7937 48.952 51.3256 48.7411 50.9255 48.4651L51.9235 47.5442C52.5664 47.9437 53.2649 48.1444 54.0123 48.1444C54.2019 48.1529 54.3911 48.122 54.56 48.0548C54.619 48.0301 54.668 47.9932 54.7016 47.9483C54.7352 47.9034 54.752 47.8522 54.7503 47.8004V47.7861C54.7512 47.7377 54.7351 47.69 54.7039 47.6481C54.6607 47.5986 54.6026 47.558 54.5344 47.5299C54.4291 47.4841 54.3179 47.4468 54.2026 47.4188C54.0248 47.3749 53.8443 47.3378 53.6618 47.3077C53.3387 47.2507 53.0189 47.1832 52.7033 47.1052C52.4305 47.0392 52.1716 46.9426 51.9351 46.8186C51.7221 46.7061 51.5458 46.5571 51.4199 46.3832C51.2859 46.1843 51.2204 45.9622 51.2296 45.7382V45.7239C51.2265 45.5025 51.2851 45.2831 51.4013 45.0807C51.5152 44.8849 51.685 44.7116 51.898 44.5736C52.1308 44.4248 52.3987 44.3122 52.6871 44.2422C53.0232 44.1602 53.3743 44.1203 53.7268 44.1239C53.7461 44.1238 53.7655 44.1238 53.7848 44.1239ZM32.0663 44.1687H33.7884L36.534 49.2032H34.6193L34.1481 48.3092H31.6602L31.2006 49.2015H29.3208L32.0663 44.1687ZM37.1652 44.2046H39.0544L40.5931 46.1395L42.1318 44.2046H44.021V49.2032H42.2432V46.333L40.5931 48.2877H40.556L38.9151 46.3474V49.2015H37.1652V44.2046ZM45.2162 44.2046H50.4033V45.3835H46.9847V46.1395H50.0807V47.2324H46.9847V48.0243H50.4498V49.2032H45.2162V44.2046ZM32.9157 45.8117L32.1847 47.2324H33.6329L32.9157 45.8117ZM30.2584 55.1103H48.8577L39.3654 57.5254L30.2584 55.1103Z" fill="#FCFCFC"/>
<path d="M15.5 21.3689C15.5 18.9089 16.672 18.0024 19.8562 18.0024L59.1412 18.0006C62.3254 18.0006 63.4998 18.9089 63.4998 21.3689V51.0403C63.5014 51.2999 63.4859 51.5594 63.4534 51.8178C63.3814 52.3535 63.3698 52.8749 62.72 53.4661C62.6573 53.5235 61.9982 53.9015 61.9982 53.9015C61.6431 54.0377 61.3994 54.1344 61.0002 54.2598L41.656 60.5163C40.651 60.8728 40.231 61.0107 39.5022 61H39.4976C38.7688 61.0107 38.3487 60.8728 37.3438 60.5163L17.9996 54.2616C17.6004 54.1362 17.3567 54.0377 17.0016 53.9033C17.0016 53.9033 16.3425 53.5235 16.2798 53.4643C15.6323 52.8731 15.6184 52.3535 15.5464 51.816C15.5139 51.5582 15.4984 51.2993 15.5 51.0403V21.3689Z" stroke="black" stroke-width="2" stroke-linejoin="round"/>
</svg>
