<svg width="79" height="79" viewBox="0 0 79 79" fill="none" xmlns="http://www.w3.org/2000/svg">
<path d="M12 1.5H67C72.799 1.5 77.5 6.20101 77.5 12V67C77.5 72.799 72.799 77.5 67 77.5H12C6.20101 77.5 1.5 72.799 1.5 67V12C1.5 6.20101 6.20101 1.5 12 1.5Z" fill="#55D3CC" stroke="black" stroke-width="3" stroke-miterlimit="2.3662" stroke-linejoin="round"/>
<path d="M12 62.9984L38.4853 21H54.9274V26.8443L32.0928 62.9984" fill="#FBBC04"/>
<path d="M54.9274 62.9984H38.4869V21.0016H54.9274V63V62.9984Z" fill="#1A73E8"/>
<path d="M66.8 51.13C66.803 52.6894 66.4979 54.2341 65.9024 55.6754C65.3068 57.1167 64.4324 58.4262 63.3293 59.5289C62.2262 60.6316 60.9162 61.5057 59.4744 62.1011C58.0326 62.6964 56.4873 63.0013 54.9274 62.9983V57.0642V51.13V45.195V39.2601C56.4875 39.257 58.0328 39.562 59.4748 40.1575C60.9167 40.753 62.2268 41.6272 63.3299 42.7301C64.433 43.8329 65.3073 45.1427 65.9028 46.5841C66.4983 48.0256 66.8032 49.5705 66.8 51.13Z" fill="#34A853"/>
<path d="M54.9274 62.9983C48.3502 62.9983 43.0532 57.7032 43.0532 51.13C43.0532 44.5569 48.3502 39.2601 54.9274 39.2601V62.9983V62.9983Z" fill="#0D652D"/>
<path d="M64.0599 30.1309C64.0599 35.243 60.0413 39.2601 54.9274 39.2601V21.0016C60.0413 21.0016 64.0599 25.0188 64.0599 30.1325V30.1309Z" fill="#1A73E8"/>
<path d="M54.9274 39.2601C60.0413 39.2601 64.0599 35.243 64.0599 30.1309V30.1325C64.0599 25.0188 60.0413 21.0016 54.9274 21.0016" stroke="black" stroke-width="1.5"/>
<rect width="3" height="30.8301" rx="1.5" transform="matrix(-0.0265637 -0.999647 0.999974 -0.0072135 28.6874 9.35403)" fill="black"/>
<ellipse rx="1.65" ry="1.69802" transform="matrix(0.999974 -0.0072135 0.0265637 0.999647 64.003 7.70932)" fill="black"/>
<path d="M54.9274 39.2601C49.8118 39.2601 45.7932 35.243 45.7932 30.1309C45.7932 25.0188 49.8118 21 54.9274 21V39.2601Z" fill="#174EA6"/>
<path d="M13.6639 29.2173C13.6639 25.0669 16.9804 21.75 21.1325 21.75C25.2848 21.75 28.6027 25.0671 28.6027 29.2173C28.6027 33.3675 25.2863 36.6846 21.1325 36.6846C16.9788 36.6846 13.6639 33.3677 13.6639 29.2173Z" fill="#EA4335" stroke="black" stroke-width="1.5"/>
<path d="M66.8 51.13L66.05 51.1285L66.05 51.1315L66.8 51.13ZM54.9288 62.2483C54.5146 62.2475 54.1782 62.5827 54.1774 62.9969C54.1766 63.4111 54.5117 63.7475 54.9259 63.7483L54.9288 62.2483ZM66.05 51.1315C66.0528 52.5921 65.7671 54.0389 65.2092 55.389L66.5955 55.9618C67.2288 54.4293 67.5532 52.7868 67.55 51.1286L66.05 51.1315ZM65.2092 55.389C64.6513 56.739 63.8323 57.9656 62.7991 58.9985L63.8595 60.0593C65.0324 58.8869 65.9622 57.4944 66.5955 55.9618L65.2092 55.389ZM62.7991 58.9985C61.7658 60.0314 60.5387 60.8501 59.1881 61.4078L59.7606 62.7943C61.2937 62.1612 62.6866 61.2318 63.8595 60.0593L62.7991 58.9985ZM59.1881 61.4078C57.8376 61.9655 56.3901 62.2512 54.9288 62.2483L54.9259 63.7483C56.5846 63.7515 58.2276 63.4273 59.7606 62.7943L59.1881 61.4078ZM54.9288 40.0101C56.3902 40.0072 57.8378 40.2929 59.1885 40.8507L59.761 39.4643C58.2279 38.8311 56.5847 38.5069 54.9259 38.5101L54.9288 40.0101ZM59.1885 40.8507C60.5392 41.4085 61.7663 42.2274 62.7996 43.2605L63.8601 42.1997C62.6872 41.027 61.2942 40.0974 59.761 39.4643L59.1885 40.8507ZM62.7996 43.2605C63.8329 44.2935 64.6519 45.5203 65.2096 46.8705L66.596 46.2978C65.9628 44.765 65.0331 43.3723 63.8601 42.1997L62.7996 43.2605ZM65.2096 46.8705C65.7674 48.2207 66.053 49.6677 66.05 51.1285L67.55 51.1316C67.5534 49.4732 67.2292 47.8305 66.596 46.2978L65.2096 46.8705Z" fill="black"/>
<path d="M38.4853 21C31.0773 32.747 26.0867 40.6139 19.6 50.9M15.8 57L12 62.9984H32.0928L38.4077 53" stroke="black" stroke-width="1.5" stroke-linecap="round" stroke-linejoin="round"/>
<circle cx="17.8" cy="53.8" r="0.8" fill="black"/>
<path d="M54.9274 21.0016H38.4869V62.9984H54.9274V63" stroke="black" stroke-width="1.5" stroke-linejoin="round"/>
</svg>
