<svg width="79" height="79" viewBox="0 0 79 79" fill="none" xmlns="http://www.w3.org/2000/svg">
<path d="M12 1.5H67C72.799 1.5 77.5 6.20101 77.5 12V67C77.5 72.799 72.799 77.5 67 77.5H12C6.20101 77.5 1.5 72.799 1.5 67V12C1.5 6.20101 6.20101 1.5 12 1.5Z" fill="#CF53DA" stroke="black" stroke-width="3" stroke-miterlimit="2.3662" stroke-linejoin="round"/>
<g clip-path="url(#clip0_48_27)">
<path d="M24.379 30.175V32.9772C24.8512 32.4316 25.4115 32.1511 26.0747 32.1511C26.39 32.1448 26.7026 32.2104 26.9889 32.3428C27.2357 32.446 27.4499 32.6143 27.6086 32.8296C27.7465 33.024 27.8418 33.2451 27.8885 33.4787C27.9453 33.8445 27.9701 34.2146 27.9626 34.5847V37.8289H26.5027V34.8792C26.5027 34.3042 26.4731 33.9355 26.4139 33.7733C26.3638 33.6187 26.2591 33.4876 26.1194 33.4046C25.9586 33.3109 25.7745 33.2648 25.5885 33.2717C25.3598 33.2692 25.135 33.3305 24.9393 33.4487C24.745 33.5732 24.5993 33.7606 24.5266 33.9796C24.438 34.2173 24.3937 34.5704 24.3937 35.0389V37.8117H22.9339V30.175H24.379Z" fill="#F36223" stroke="black" stroke-width="0.5"/>
<path d="M32.2029 36.0445L33.6627 36.2949C33.4711 36.8258 33.1759 37.2386 32.7779 37.519C32.3798 37.7995 31.8636 37.9318 31.2592 37.9318C30.3009 37.9318 29.5777 37.6225 29.1209 36.9881C28.7522 36.4866 28.5753 35.8528 28.5753 35.0855C28.5753 34.1713 28.811 33.4487 29.2978 32.9331C29.7693 32.4169 30.3891 32.1511 31.1117 32.1511C31.9371 32.1511 32.5862 32.4169 33.0583 32.9625C33.5305 33.5081 33.7662 34.3335 33.7362 35.4541H30.0792C30.0937 35.8801 30.2117 36.2191 30.4332 36.4713C30.5391 36.5888 30.6689 36.6825 30.8139 36.746C30.9588 36.8096 31.1157 36.8416 31.2739 36.8399C31.5097 36.8399 31.7013 36.7811 31.8489 36.6482C32.0241 36.4865 32.1473 36.2764 32.2029 36.0445ZM32.2917 34.5699C32.277 34.1419 32.1741 33.8173 31.9678 33.5963C31.871 33.49 31.7523 33.406 31.62 33.35C31.4876 33.294 31.3447 33.2672 31.2011 33.2717C31.0504 33.2676 30.9007 33.2973 30.763 33.3585C30.6252 33.4197 30.5029 33.511 30.405 33.6256C30.1987 33.862 30.0952 34.1713 30.0952 34.5699H32.2917Z" fill="#F36223" stroke="black" stroke-width="0.5"/>
<path d="M34.4153 32.2693H35.787V33.0801C35.967 32.7973 36.215 32.5642 36.5083 32.4022C36.8118 32.2234 37.1586 32.1314 37.5108 32.1364C38.1599 32.1364 38.7055 32.3871 39.1476 32.8884C39.5903 33.3899 39.8261 34.0978 39.8261 34.9967C39.8261 35.9257 39.605 36.6336 39.1476 37.1498C38.6901 37.666 38.1452 37.9164 37.5108 37.9164C37.2256 37.9224 36.943 37.8618 36.6853 37.7395C36.4342 37.6219 36.1691 37.4149 35.9033 37.1204V39.9072H34.4447V32.2693H34.4153ZM35.8605 34.9526C35.8605 35.5717 35.9787 36.0292 36.2292 36.3237C36.4796 36.6182 36.7748 36.7664 37.1287 36.7664C37.2935 36.7684 37.4566 36.732 37.605 36.6603C37.7535 36.5886 37.8832 36.4834 37.9842 36.3531C38.2052 36.0879 38.3234 35.6305 38.3234 35.0114C38.3234 34.4364 38.2052 33.9937 37.9695 33.7138C37.7337 33.434 37.4533 33.2858 37.0993 33.2858C36.9302 33.2819 36.7624 33.317 36.6089 33.3884C36.4555 33.4597 36.3205 33.5654 36.2145 33.6972C35.9787 33.9943 35.8605 34.4077 35.8605 34.9533V34.9526Z" fill="#F36223" stroke="black" stroke-width="0.5"/>
<path d="M40.1845 36.2215L41.6591 36.0004C41.7044 36.2557 41.8405 36.4861 42.0424 36.6489C42.2341 36.7962 42.4994 36.8699 42.8385 36.8699C43.2218 36.8699 43.5023 36.7965 43.6939 36.6636C43.7568 36.6188 43.8074 36.5588 43.8409 36.4892C43.8744 36.4196 43.8898 36.3427 43.8856 36.2655C43.889 36.2141 43.8816 36.1626 43.8637 36.1143C43.8459 36.0659 43.8181 36.0219 43.7821 35.9851C43.7086 35.9116 43.5463 35.8528 43.2953 35.7934C42.1159 35.5283 41.3639 35.2925 41.054 35.0855C40.8445 34.9555 40.6729 34.7726 40.5563 34.5553C40.4398 34.338 40.3825 34.0938 40.3902 33.8473C40.3902 33.3605 40.5819 32.9625 40.9652 32.6379C41.3486 32.3134 41.9236 32.1511 42.7196 32.1511C43.4716 32.1511 44.0325 32.2693 44.4012 32.5197C44.7698 32.7702 45.0203 33.1248 45.1678 33.611L43.7815 33.862C43.7315 33.6599 43.6113 33.4821 43.4422 33.3605C43.2808 33.2442 43.0452 33.1861 42.7356 33.1861C42.3523 33.1861 42.0724 33.2449 41.9101 33.3484C41.8588 33.378 41.8166 33.4211 41.788 33.473C41.7594 33.5249 41.7455 33.5837 41.7479 33.6429C41.7477 33.6961 41.7612 33.7485 41.7871 33.795C41.8129 33.8415 41.8502 33.8807 41.8955 33.9087C42.0277 34.0115 42.4851 34.1444 43.2665 34.3214C44.0479 34.4984 44.5941 34.7194 44.9033 34.9705C45.2132 35.2356 45.3608 35.5896 45.3608 36.0617C45.3608 36.5633 45.1544 37.0054 44.7264 37.374C44.2983 37.7426 43.6799 37.9196 42.8391 37.9196C42.0871 37.9196 41.4821 37.772 41.0547 37.4628C40.8352 37.3232 40.6454 37.1417 40.4961 36.9287C40.3468 36.7157 40.2409 36.4754 40.1845 36.2215V36.2215Z" fill="#F36223" stroke="black" stroke-width="0.5"/>
<path d="M45.9096 30.8535C45.9096 30.6736 45.9811 30.501 46.1083 30.3738C46.2356 30.2465 46.4081 30.175 46.5881 30.175H46.691C46.8709 30.175 47.0435 30.2465 47.1707 30.3738C47.298 30.501 47.3695 30.6736 47.3695 30.8535V30.8535C47.3695 31.0335 47.298 31.2061 47.1707 31.3333C47.0435 31.4606 46.8709 31.532 46.691 31.532H46.5881C46.4081 31.532 46.2356 31.4606 46.1083 31.3333C45.9811 31.2061 45.9096 31.0335 45.9096 30.8535V30.8535ZM45.9096 37.8174V32.2693H47.3695V37.7995H45.9096V37.8174Z" fill="#F36223" stroke="black" stroke-width="0.5"/>
<path d="M22.9339 47.6052V39.9756H24.3918V42.7298C24.8486 42.2149 25.3789 41.9631 25.9973 41.9631C26.3117 41.9564 26.6238 42.0189 26.9114 42.1461C27.1989 42.2732 27.4551 42.462 27.6617 42.6991C28.1038 43.1853 28.3248 43.8926 28.3248 44.8075C28.3248 45.7505 28.1038 46.4718 27.647 46.9874C27.2055 47.5029 26.6458 47.754 26.012 47.754C25.6879 47.7547 25.3689 47.6736 25.0844 47.5183C24.7669 47.3492 24.4942 47.107 24.289 46.8117V47.6218H22.9339V47.6052ZM24.3771 44.7187C24.3771 45.2937 24.4659 45.7204 24.6423 45.9849C24.8927 46.3683 25.2313 46.5746 25.6587 46.5746C25.8191 46.5761 25.9775 46.5395 26.1209 46.4677C26.2643 46.3959 26.3886 46.2911 26.4835 46.1619C26.7046 45.8821 26.8222 45.4553 26.8222 44.8656C26.8222 44.2325 26.7046 43.7757 26.4835 43.4958C26.3788 43.3628 26.2443 43.2562 26.0908 43.1846C25.9373 43.113 25.7692 43.0785 25.6 43.0838C25.4328 43.0784 25.2668 43.1131 25.1157 43.1847C24.9646 43.2564 24.8327 43.363 24.7311 43.4958C24.4972 43.7463 24.3771 44.159 24.3771 44.7187Z" fill="#F36223" stroke="black" stroke-width="0.5"/>
<path d="M32.4603 47.6052V46.7804C32.2535 47.0722 31.9797 47.3101 31.6618 47.4742C31.344 47.6383 30.9915 47.7237 30.6338 47.7234C30.284 47.7263 29.9392 47.6401 29.632 47.4729C29.3462 47.3236 29.1221 47.0784 28.9988 46.7804C28.866 46.4858 28.8072 46.0738 28.8072 45.5582V42.0667H30.2658V44.6145C30.2658 45.3953 30.2952 45.8668 30.3392 46.0437C30.3879 46.2105 30.4917 46.3558 30.6338 46.4558C30.7952 46.5614 30.986 46.6131 31.1787 46.6034C31.4199 46.6029 31.6555 46.5311 31.856 46.397C32.0442 46.2728 32.1886 46.0924 32.2687 45.8815C32.3422 45.6751 32.3715 45.1742 32.3715 44.3941V42.0667H33.8301V47.5898H32.4603V47.6052Z" fill="#F36223" stroke="black" stroke-width="0.5"/>
<path d="M36.2822 47.6052H34.8236V42.0667H36.1787V42.8474C36.4144 42.4794 36.6208 42.2289 36.8125 42.1107C37.0024 41.9928 37.2221 41.9317 37.4456 41.9344C37.7854 41.9332 38.1182 42.0304 38.4039 42.2142L37.9478 43.4952C37.6973 43.3336 37.4763 43.2595 37.2552 43.2595C37.0701 43.2546 36.8886 43.3117 36.7396 43.4217C36.5927 43.5393 36.4892 43.731 36.401 44.0402C36.3128 44.3347 36.2835 44.9538 36.2835 45.8962L36.2822 47.6052Z" fill="#F36223" stroke="black" stroke-width="0.5"/>
<path d="M43.5591 47.6052H42.1159C42.0718 47.5023 42.0258 47.05 42.0258 47.05C41.9826 47.0477 41.9415 47.0306 41.9095 47.0014C41.6788 47.2288 41.4094 47.4133 41.1141 47.5464C40.8247 47.6659 40.5142 47.7261 40.2011 47.7234C39.6261 47.7234 39.1846 47.5758 38.8595 47.2666C38.7006 47.1182 38.5751 46.9378 38.4912 46.7372C38.4074 46.5366 38.3672 46.3205 38.3733 46.1032C38.3692 45.8075 38.4461 45.5163 38.5956 45.2611C38.743 45.013 38.9644 44.8172 39.2287 44.7015C39.4939 44.5686 39.8919 44.451 40.3922 44.3628C41.07 44.23 41.5562 44.1124 41.8066 44.0089V43.862C41.8066 43.5821 41.7325 43.3758 41.6003 43.2576C41.468 43.1394 41.2023 43.0812 40.8196 43.0812C40.5544 43.0812 40.3628 43.1253 40.2158 43.2282C40.0378 43.3595 39.9082 43.5459 39.8472 43.7585L38.5215 43.5227C38.6691 42.9924 38.9342 42.595 39.2882 42.3299C39.6568 42.0795 40.1871 41.9466 40.9084 41.9466C41.5568 41.9466 42.0424 42.02 42.367 42.1817C42.6831 42.333 42.9589 42.557 43.172 42.8353C43.4261 43.2009 43.5601 43.6365 43.5553 44.0817M41.792 44.9417C41.6003 45.0005 41.3055 45.0739 40.9077 45.1621C40.5103 45.2509 40.2305 45.3391 40.1123 45.4125C40.0257 45.4676 39.9545 45.5438 39.9056 45.6341C39.8566 45.7243 39.8315 45.8255 39.8325 45.9281C39.8306 46.0284 39.8507 46.1278 39.8915 46.2194C39.9322 46.3111 39.9925 46.3926 40.0682 46.4584C40.1467 46.5326 40.2393 46.5904 40.3404 46.6284C40.4416 46.6664 40.5493 46.6837 40.6573 46.6795C40.9306 46.676 41.195 46.5816 41.4086 46.4111C41.5761 46.2918 41.7001 46.1211 41.7619 45.9249C41.8067 45.8074 41.8213 45.5569 41.8213 45.2183V44.9417H41.792Z" fill="#F36223" stroke="black" stroke-width="0.5"/>
<path d="M49.4324 47.6052H48.0773V46.7944C47.8724 47.0902 47.5997 47.3327 47.2819 47.5017C46.9942 47.6486 46.6772 47.7292 46.3543 47.7374C45.7211 47.7374 45.1761 47.487 44.7193 46.9707C44.2625 46.4545 44.0421 45.7486 44.0421 44.8349C44.0421 43.8926 44.2625 43.1853 44.7046 42.6991C44.912 42.4638 45.1678 42.2762 45.4546 42.1491C45.7413 42.0221 46.0522 41.9586 46.3658 41.9631C46.9842 41.9631 47.5158 42.2136 47.9713 42.7298V39.9756H49.4292V47.6052H49.4324ZM45.5295 44.7187C45.5295 45.3077 45.6176 45.7351 45.7799 46.0003C46.0156 46.3836 46.3396 46.5753 46.767 46.5753C47.1056 46.5753 47.3854 46.4277 47.6212 46.1479C47.8569 45.868 47.9745 45.4406 47.9745 44.8662C47.9745 44.2331 47.8569 43.7763 47.6359 43.4965C47.529 43.3676 47.3951 43.2638 47.2436 43.1926C47.0921 43.1214 46.9267 43.0845 46.7593 43.0845C46.5919 43.0845 46.4266 43.1214 46.275 43.1926C46.1235 43.2638 45.9896 43.3676 45.8828 43.4965C45.6445 43.761 45.5295 44.175 45.5295 44.7187Z" fill="#F36223" stroke="black" stroke-width="0.5"/>
<path d="M55.1 47.6052H53.6568C53.6127 47.5023 53.5667 47.05 53.5667 47.05C53.5235 47.0477 53.4824 47.0306 53.4504 47.0014C53.2196 47.2288 52.9503 47.4133 52.655 47.5464C52.3656 47.6659 52.0551 47.7261 51.742 47.7234C51.167 47.7234 50.7255 47.5758 50.4003 47.2666C50.2415 47.1182 50.1159 46.9378 50.0321 46.7372C49.9483 46.5366 49.9081 46.3205 49.9142 46.1032C49.9101 45.8075 49.987 45.5163 50.1365 45.2611C50.2839 45.013 50.5053 44.8172 50.7696 44.7015C51.0348 44.5686 51.4322 44.451 51.933 44.3628C52.6109 44.23 53.0971 44.1124 53.3475 44.0089V43.862C53.3475 43.5821 53.2734 43.3758 53.1412 43.2576C53.0089 43.1394 52.7432 43.0812 52.3605 43.0812C52.0953 43.0812 51.9037 43.1253 51.7567 43.2282C51.5787 43.3595 51.4491 43.5459 51.3881 43.7585L50.0624 43.5227C50.21 42.9924 50.4751 42.595 50.829 42.3299C51.1977 42.0795 51.728 41.9466 52.4493 41.9466C53.0977 41.9466 53.5833 42.02 53.9078 42.1817C54.224 42.333 54.4998 42.557 54.7128 42.8353C54.967 43.2009 55.101 43.6365 55.0962 44.0817M53.3322 44.9417C53.141 45.0005 52.8464 45.0739 52.4486 45.1621C52.0512 45.2509 51.7714 45.3391 51.6532 45.4125C51.5666 45.4676 51.4954 45.5438 51.4465 45.6341C51.3975 45.7243 51.3723 45.8255 51.3734 45.9281C51.3715 46.0284 51.3916 46.1278 51.4324 46.2194C51.4731 46.3111 51.5334 46.3926 51.6091 46.4584C51.6876 46.5326 51.7802 46.5904 51.8813 46.6284C51.9825 46.6664 52.0902 46.6837 52.1982 46.6795C52.4715 46.676 52.7358 46.5816 52.9495 46.4111C53.117 46.2918 53.241 46.1211 53.3028 45.9249C53.3475 45.8074 53.3622 45.5569 53.3622 45.2183V44.9417H53.3322Z" fill="#F36223" stroke="black" stroke-width="0.5"/>
<path d="M22.4432 21.6861L23.574 22.7722L24.7049 23.8583C28.5655 20.2017 33.6825 18.1663 39 18.1722C45.8764 18.1722 51.9733 21.5053 55.7657 26.6426L58.1667 24.6193C53.7928 18.8035 46.836 15.0417 39 15.0417C32.8299 15.0339 26.8963 17.4151 22.4432 21.6861Z" fill="#F36223"/>
<path d="M58.3251 53.1635C61.3658 49.0134 62.9901 43.995 62.9579 38.8503C62.9257 33.7057 61.2386 28.7079 58.1462 24.5963L55.7389 26.6094C58.386 30.1856 59.8184 34.5155 59.8261 38.9648C59.8338 43.4142 58.4164 47.749 55.7817 51.3344L58.3251 53.1635Z" fill="#47C7EE"/>
<path d="M58.3385 53.1456L55.8028 51.3037C52.0155 56.4717 45.9 59.8278 39 59.8278C38.2479 59.8274 37.4964 59.7869 36.7486 59.7064L36.6738 62.8465C37.4392 62.9211 38.2146 62.9583 39 62.9583C46.9408 62.9583 53.9788 59.095 58.3385 53.1456Z" fill="#6C53A4"/>
<path d="M36.707 62.8497L36.7569 59.707C34.0138 59.4114 31.357 58.573 28.9411 57.2406C26.5251 55.9083 24.3984 54.1086 22.6847 51.9464L20.3138 53.996C22.3153 56.4931 24.7974 58.5634 27.6132 60.0842C30.429 61.6049 33.5213 62.5453 36.707 62.8497Z" fill="#6AC6B7"/>
<path d="M20.3445 54.0324L22.7167 51.9841C20.0949 48.7071 18.5297 44.7115 18.2278 40.5257L15.1196 40.9403C15.5019 45.7312 17.3231 50.2947 20.3445 54.0324Z" fill="#5D186B"/>
<path d="M18.1722 39C18.169 36.1585 18.7488 33.3466 19.8758 30.7382C21.0029 28.1298 22.6532 25.7804 24.7247 23.8353L22.4822 21.6465C20.128 23.8817 18.254 26.5733 16.9747 29.557C15.6955 32.5406 15.0377 35.7537 15.0417 39C15.0417 39.6725 15.0692 40.3385 15.1241 40.9978L18.231 40.5691C18.1918 40.0512 18.1722 39.5281 18.1722 39Z" fill="#FAA41D"/>
<path d="M22.4432 21.6861L22.0971 21.3253L21.7211 21.6859L22.0969 22.0467L22.4432 21.6861ZM24.7049 23.8583L24.3585 24.219L24.7025 24.5493L25.0487 24.2214L24.7049 23.8583ZM39 18.1722L38.9995 18.6722H39V18.1722ZM55.7657 26.6426L55.3635 26.9396L55.6802 27.3686L56.0879 27.025L55.7657 26.6426ZM58.1667 24.6193L58.4889 25.0016L58.8506 24.6968L58.5663 24.3187L58.1667 24.6193ZM39 15.0417L38.9994 15.5417H39V15.0417ZM58.3251 53.1635L58.0332 53.5695L58.4355 53.8588L58.7285 53.459L58.3251 53.1635ZM58.1462 24.5963L58.5458 24.2957L58.2294 23.8749L57.8255 24.2127L58.1462 24.5963ZM55.7389 26.6094L55.4181 26.2258L55.0567 26.5281L55.337 26.9069L55.7389 26.6094ZM55.7817 51.3344L55.3788 51.0383L55.0797 51.4454L55.4898 51.7403L55.7817 51.3344ZM58.3385 53.1456L58.7418 53.4412L59.0386 53.0362L58.6324 52.7411L58.3385 53.1456ZM55.8028 51.3037L56.0966 50.8992L55.6938 50.6066L55.3995 51.0082L55.8028 51.3037ZM39 59.8278L38.9998 60.3278H39V59.8278ZM36.7486 59.7064L36.8021 59.2093L36.2616 59.1511L36.2487 59.6945L36.7486 59.7064ZM36.6738 62.8465L36.174 62.8346L36.1629 63.2991L36.6254 63.3442L36.6738 62.8465ZM36.707 62.8497L36.6595 63.3474L37.1984 63.3989L37.207 62.8576L36.707 62.8497ZM36.7569 59.707L37.2568 59.7149L37.264 59.2588L36.8105 59.2099L36.7569 59.707ZM22.6847 51.9464L23.0766 51.6359L22.7525 51.227L22.3577 51.5682L22.6847 51.9464ZM20.3138 53.996L19.9868 53.6177L19.6224 53.9328L19.9236 54.3087L20.3138 53.996ZM20.3445 54.0324L19.9556 54.3467L20.2803 54.7484L20.6712 54.4109L20.3445 54.0324ZM22.7167 51.9841L23.0434 52.3626L23.4079 52.0478L23.1071 51.6718L22.7167 51.9841ZM18.2278 40.5257L18.7265 40.4897L18.6883 39.9598L18.1617 40.0301L18.2278 40.5257ZM15.1196 40.9403L15.0535 40.4447L14.5835 40.5074L14.6212 40.9801L15.1196 40.9403ZM18.1722 39L18.6722 39L18.6722 38.9994L18.1722 39ZM24.7247 23.8353L25.0669 24.1998L25.4477 23.8423L25.0739 23.4775L24.7247 23.8353ZM22.4822 21.6465L22.8314 21.2887L22.487 20.9525L22.1379 21.2839L22.4822 21.6465ZM15.0417 39H15.5417L15.5417 38.9994L15.0417 39ZM15.1241 40.9978L14.6258 41.0393L14.6697 41.5652L15.1924 41.4931L15.1241 40.9978ZM18.231 40.5691L18.2994 41.0644L18.7651 41.0002L18.7296 40.5314L18.231 40.5691ZM25.0487 24.2214C28.8164 20.6528 33.81 18.6665 38.9995 18.6722L39.0006 17.6722C33.5549 17.6662 28.3147 19.7505 24.361 23.4953L25.0487 24.2214ZM39 18.6722C45.7109 18.6722 51.6612 21.9244 55.3635 26.9396L56.168 26.3457C52.2854 21.0862 46.0419 17.6722 39 17.6722V18.6722ZM56.0879 27.025L58.4889 25.0016L57.8445 24.2369L55.4435 26.2603L56.0879 27.025ZM58.5663 24.3187C54.1021 18.3828 46.9999 14.5417 39 14.5417V15.5417C46.6721 15.5417 53.4836 19.2241 57.7671 24.9198L58.5663 24.3187ZM39.0006 14.5417C32.7013 14.5338 26.6434 16.9649 22.0971 21.3253L22.7893 22.047C27.1491 17.8654 32.9584 15.5341 38.9994 15.5417L39.0006 14.5417ZM58.7285 53.459C61.8325 49.2224 63.4907 44.0992 63.4579 38.8472L62.4579 38.8534C62.4894 43.8908 60.899 48.8045 57.9218 52.868L58.7285 53.459ZM63.4579 38.8472C63.425 33.5952 61.7027 28.4932 58.5458 24.2957L57.7466 24.8968C60.7745 28.9227 62.4263 33.8161 62.4579 38.8534L63.4579 38.8472ZM57.8255 24.2127L55.4181 26.2258L56.0597 26.993L58.467 24.9798L57.8255 24.2127ZM55.337 26.9069C57.9206 30.3972 59.3186 34.6232 59.3261 38.9657L60.3261 38.964C60.3182 34.4078 58.8515 29.974 56.1408 26.3119L55.337 26.9069ZM59.3261 38.9657C59.3336 43.3082 57.9503 47.539 55.3788 51.0383L56.1846 51.6305C58.8826 47.959 60.334 43.5201 60.3261 38.964L59.3261 38.9657ZM55.4898 51.7403L58.0332 53.5695L58.6171 52.7576L56.0736 50.9285L55.4898 51.7403ZM58.6324 52.7411L56.0966 50.8992L55.5089 51.7083L58.0447 53.5502L58.6324 52.7411ZM55.3995 51.0082C51.7023 56.0531 45.734 59.3278 39 59.3278V60.3278C46.066 60.3278 52.3286 56.8903 56.2061 51.5993L55.3995 51.0082ZM39.0003 59.3278C38.2659 59.3274 37.5322 59.2878 36.8021 59.2093L36.6951 60.2035C37.4605 60.2859 38.2299 60.3274 38.9998 60.3278L39.0003 59.3278ZM36.2487 59.6945L36.174 62.8346L37.1737 62.8584L37.2484 59.7183L36.2487 59.6945ZM36.6254 63.3442C37.4072 63.4203 38.1988 63.4583 39 63.4583V62.4583C38.2304 62.4583 37.4712 62.4218 36.7223 62.3489L36.6254 63.3442ZM39 63.4583C47.1069 63.4583 54.292 59.5135 58.7418 53.4412L57.9352 52.8501C53.6656 58.6765 46.7747 62.4583 39 62.4583V63.4583ZM37.207 62.8576L37.2568 59.7149L36.2569 59.6991L36.2071 62.8418L37.207 62.8576ZM36.8105 59.2099C34.1333 58.9214 31.5404 58.1031 29.1825 56.8028L28.6996 57.6785C31.1736 59.0428 33.8943 59.9014 36.7033 60.2041L36.8105 59.2099ZM29.1825 56.8028C26.8247 55.5025 24.7491 53.7461 23.0766 51.6359L22.2929 52.257C24.0478 54.4712 26.2256 56.3141 28.6996 57.6785L29.1825 56.8028ZM22.3577 51.5682L19.9868 53.6177L20.6408 54.3742L23.0117 52.3247L22.3577 51.5682ZM19.9236 54.3087C21.9669 56.858 24.5009 58.9715 27.3756 60.5241L27.8508 59.6442C25.0938 58.1552 22.6636 56.1283 20.7039 53.6833L19.9236 54.3087ZM27.3756 60.5241C30.2502 62.0767 33.4072 63.0367 36.6595 63.3474L36.7546 62.352C33.6354 62.054 30.6077 61.1332 27.8508 59.6442L27.3756 60.5241ZM20.6712 54.4109L23.0434 52.3626L22.3899 51.6057L20.0177 53.654L20.6712 54.4109ZM23.1071 51.6718C20.5486 48.4738 19.0211 44.5746 18.7265 40.4897L17.7291 40.5616C18.0382 44.8484 19.6413 48.9404 22.3262 52.2965L23.1071 51.6718ZM18.1617 40.0301L15.0535 40.4447L15.1857 41.4359L18.2939 41.0213L18.1617 40.0301ZM14.6212 40.9801C15.0115 45.8714 16.8709 50.5307 19.9556 54.3467L20.7333 53.7181C17.7753 50.0588 15.9923 45.591 15.618 40.9005L14.6212 40.9801ZM18.6722 38.9994C18.669 36.2263 19.2349 33.4821 20.3348 30.9365L19.4169 30.5398C18.2627 33.211 17.6689 36.0907 17.6722 39.0006L18.6722 38.9994ZM20.3348 30.9365C21.4348 28.3909 23.0453 26.098 25.0669 24.1998L24.3824 23.4708C22.2611 25.4627 20.5711 27.8686 19.4169 30.5398L20.3348 30.9365ZM25.0739 23.4775L22.8314 21.2887L22.1329 22.0043L24.3754 24.1931L25.0739 23.4775ZM22.1379 21.2839C19.7344 23.5659 17.8212 26.3139 16.5152 29.3599L17.4343 29.754C18.6868 26.8328 20.5215 24.1976 22.8265 22.0091L22.1379 21.2839ZM16.5152 29.3599C15.2092 32.406 14.5377 35.6863 14.5417 39.0006L15.5417 38.9994C15.5378 35.821 16.1818 32.6752 17.4343 29.754L16.5152 29.3599ZM14.5417 39C14.5417 39.6862 14.5697 40.366 14.6258 41.0393L15.6224 40.9563C15.5686 40.311 15.5417 39.6589 15.5417 39H14.5417ZM15.1924 41.4931L18.2994 41.0644L18.1627 40.0738L15.0558 40.5025L15.1924 41.4931ZM18.7296 40.5314C18.6914 40.0262 18.6722 39.5158 18.6722 39H17.6722C17.6722 39.5405 17.6923 40.0761 17.7324 40.6068L18.7296 40.5314ZM22.0969 22.0467L23.2277 23.1328L23.9204 22.4116L22.7896 21.3255L22.0969 22.0467ZM23.2277 23.1328L24.3585 24.219L25.0512 23.4977L23.9204 22.4116L23.2277 23.1328Z" fill="black"/>
</g>
<rect x="70.1813" y="72.3107" width="3.1" height="17.1102" rx="1.55" transform="rotate(179.808 70.1813 72.3107)" fill="black"/>
<circle cx="68.6555" cy="49.6555" r="1.65" transform="rotate(-90.1917 68.6555 49.6555)" fill="black"/>
<defs>
<clipPath id="clip0_48_27">
<rect width="50" height="50" fill="white" transform="translate(14 14)"/>
</clipPath>
</defs>
</svg>
