<svg width="46" height="46" xmlns="http://www.w3.org/2000/svg">
 <g>
  <title>Layer 1</title>
  <g stroke="null" id="svg_1">
   <path stroke="null" id="svg_2" class="st0" d="m27.90246,18.86878s4.3,-6.3 10.8,-2.2c0,0 -7.6,-22.8 -16.5,-6.9c0.1,-0.1 6.6,-4.4 5.7,9.1z" fill="#8b8c8c"/>
   <path stroke="null" id="svg_3" class="st1" d="m46.00246,40.76878c0,-11.1 -6,-20 -6,-20c-2.6,-3.6 -5.6,-3.6 -5.6,-3.6c-3.3,-0.4 -5.7,3.4 -5.7,3.4c-1.9,2.3 -3.7,2.6 -4.8,2.6l-1.9,0c-1.1,0.1 -2.9,-0.3 -4.8,-2.6c0,0 -2.4,-3.8 -5.7,-3.4c0,0 -3,0 -5.6,3.6c0,0 -1,1.5 -2.2,4c-1.6,3.7 -3.7,9.4 -3.7,16c0,0 -0.4,11.1 9,1.1c0,0 7,-9 14,-9s14,9 14,9c5.8,6.1 7.9,4.3 8.6,2c0.5,-1.4 0.4,-3.1 0.4,-3.1z" fill="#39bee7"/>
   <path stroke="null" id="svg_4" class="st2" d="m10.10246,22.46878l2.7,0l0,8.7l-2.7,0l0,-8.7z" fill="#fff"/>
   <path stroke="null" id="svg_5" class="st3" d="m30.70246,2.86878c-3.4,-2.5 -15.3,-9.2 -23.4,13.7c0,0 2.5,-1.9 5.8,-1.2c1.6,0.3 3.4,1.3 5.2,3.5c0,0 2.9,-20.5 13.4,-15.3c-0.1,0 -0.4,-0.3 -1,-0.7z" fill="#e61948"/>
   <path stroke="null" id="svg_6" class="st2" d="m7.10246,25.46878l8.7,0l0,2.7l-8.7,0l0,-2.7z" fill="#fff"/>
   <circle stroke="null" id="svg_7" class="st2" cx="34.30246" cy="23.46878" r="1.7" fill="#fff"/>
   <circle stroke="null" id="svg_8" class="st2" cx="34.30246" cy="30.06878" r="1.7" fill="#fff"/>
   <circle stroke="null" id="svg_9" class="st2" cx="31.00246" cy="26.76878" r="1.7" fill="#fff"/>
   <circle stroke="null" id="svg_10" class="st2" cx="37.60246" cy="26.76878" r="1.7" fill="#fff"/>
  </g>
 </g>

</svg>