<svg xmlns="http://www.w3.org/2000/svg" viewBox="0 0 208.1 47.4"><style>.st0{fill:#8b8c8c}.st1{fill:#39bee7}.st2{fill:#fff}.st3{fill:#e61948}.st4{fill:#6e6e6d}</style><path class="st0" d="M27.9 18.9s4.3-6.3 10.8-2.2c0 0-7.6-22.8-16.5-6.9.1-.1 6.6-4.4 5.7 9.1z"/><path class="st1" d="M46 40.8c0-11.1-6-20-6-20-2.6-3.6-5.6-3.6-5.6-3.6-3.3-.4-5.7 3.4-5.7 3.4-1.9 2.3-3.7 2.6-4.8 2.6H22c-1.1.1-2.9-.3-4.8-2.6 0 0-2.4-3.8-5.7-3.4 0 0-3 0-5.6 3.6 0 0-1 1.5-2.2 4-1.6 3.7-3.7 9.4-3.7 16 0 0-.4 11.1 9 1.1 0 0 7-9 14-9s14 9 14 9c5.8 6.1 7.9 4.3 8.6 2 .5-1.4.4-3.1.4-3.1z"/><path class="st2" d="M10.1 22.5h2.7v8.7h-2.7z"/><path class="st3" d="M30.7 2.9C27.3.4 15.4-6.3 7.3 16.6c0 0 2.5-1.9 5.8-1.2 1.6.3 3.4 1.3 5.2 3.5 0 0 2.9-20.5 13.4-15.3-.1 0-.4-.3-1-.7z"/><path class="st2" d="M7.1 25.5h8.7v2.7H7.1z"/><circle class="st2" cx="34.3" cy="23.5" r="1.7"/><circle class="st2" cx="34.3" cy="30.1" r="1.7"/><circle class="st2" cx="31" cy="26.8" r="1.7"/><circle class="st2" cx="37.6" cy="26.8" r="1.7"/></svg>