<svg width="79" height="80" viewBox="0 0 79 80" fill="none" xmlns="http://www.w3.org/2000/svg">
<path d="M1.5 12.5C1.5 6.70101 6.20101 2 12 2H67C72.799 2 77.5 6.70101 77.5 12.5V67.5C77.5 73.299 72.799 78 67 78H12C6.20101 78 1.5 73.299 1.5 67.5V12.5Z" fill="#FFA55B" stroke="black" stroke-width="3" stroke-miterlimit="2.3662" stroke-linejoin="round"/>
<path d="M45.1818 36C45.1818 36 49.0909 30.4417 55 34.059C55 34.059 48.0909 13.9432 40 27.9713C40.0909 27.8831 46 24.0893 45.1818 36Z" fill="#8B8C8C" stroke="black" stroke-linejoin="round"/>
<path d="M63.4915 57.0717C63.4915 46.7035 57.2321 38.3902 57.2321 38.3902C54.5196 35.0276 51.3899 35.0276 51.3899 35.0276C47.9473 34.6539 45.4435 38.2034 45.4435 38.2034C43.4613 40.3518 41.5835 40.632 40.4359 40.632H38.4538C37.3062 40.7254 35.4284 40.3518 33.4462 38.2034C33.4462 38.2034 30.9425 34.6539 27.4998 35.0276C27.4998 35.0276 24.3701 35.0276 21.6577 38.3902C21.6577 38.3902 20.6144 39.7913 19.3625 42.1265C17.6934 45.5826 15.5026 50.9068 15.5026 57.0717C15.5026 57.0717 15.0853 67.4399 24.8917 58.0992C24.8917 58.0992 32.1944 49.6925 39.497 49.6925C46.7997 49.6925 54.1023 58.0992 54.1023 58.0992C60.1531 63.797 62.3439 62.1157 63.0742 59.9673C63.5958 58.6596 63.4915 57.0717 63.4915 57.0717Z" fill="#39BEE7"/>
<path d="M26.5 40H28.5V48H26.5V40Z" fill="white" stroke="black" stroke-width="0.7" stroke-linejoin="round"/>
<path d="M46.9754 20.7367C43.4918 18.3518 31.2992 11.9603 23 33.8059C23 33.8059 25.5615 31.9934 28.9426 32.6612C30.582 32.9473 32.4262 33.9013 34.2705 36C34.2705 36 37.2418 16.4439 48 21.4045C47.8975 21.4045 47.5902 21.1183 46.9754 20.7367Z" fill="#E61948" stroke="black" stroke-linejoin="round"/>
<path d="M23.5 43H31.5V45H23.5V43Z" fill="white" stroke="black" stroke-width="0.6" stroke-linejoin="round"/>
<path d="M53.225 40.5C53.225 41.1765 52.6765 41.725 52 41.725C51.3235 41.725 50.775 41.1765 50.775 40.5C50.775 39.8235 51.3235 39.275 52 39.275C52.6765 39.275 53.225 39.8235 53.225 40.5Z" fill="white" stroke="black" stroke-width="0.55"/>
<path d="M53.225 46.5C53.225 47.1765 52.6765 47.725 52 47.725C51.3235 47.725 50.775 47.1765 50.775 46.5C50.775 45.8235 51.3235 45.275 52 45.275C52.6765 45.275 53.225 45.8235 53.225 46.5Z" fill="white" stroke="black" stroke-width="0.55"/>
<rect x="26.85" y="42" width="1.3" height="4" fill="white"/>
<rect x="26.5" y="44.6" width="1.2" height="2" transform="rotate(-90 26.5 44.6)" fill="white"/>
<path d="M50.225 43.5C50.225 44.1765 49.6765 44.725 49 44.725C48.3235 44.725 47.775 44.1765 47.775 43.5C47.775 42.8235 48.3235 42.275 49 42.275C49.6765 42.275 50.225 42.8235 50.225 43.5Z" fill="white" stroke="black" stroke-width="0.55"/>
<path d="M59.7068 42.5C58.3882 39.9257 57.2321 38.3902 57.2321 38.3902C54.5196 35.0276 51.3899 35.0276 51.3899 35.0276C47.9472 34.6539 45.4435 38.2034 45.4435 38.2034C43.4613 40.3518 41.5835 40.632 40.4359 40.632H38.4538C37.3062 40.7254 35.4284 40.3518 33.4462 38.2034C33.4462 38.2034 30.9425 34.6539 27.4998 35.0276C27.4998 35.0276 24.3701 35.0276 21.6577 38.3902C21.6577 38.3902 20.6144 39.7913 19.3625 42.1265C17.6934 45.5826 15.5026 50.9068 15.5026 57.0717C15.5026 57.0717 15.0853 67.4399 24.8917 58.0992C24.8917 58.0992 32.1944 49.6925 39.497 49.6925C46.7997 49.6925 54.1023 58.0992 54.1023 58.0992C60.1531 63.797 62.3439 62.1157 63.0742 59.9673C63.5958 58.6596 63.4915 57.0717 63.4915 57.0717C63.4915 56.3711 63.4629 55.6799 63.4096 55C63.3564 54.3214 63.2786 53.6541 63.18 53M59.7068 42.5C60.0906 43.2494 60.4882 44.0868 60.8751 45L59.7068 42.5Z" stroke="black" stroke-width="1.8" stroke-linecap="round" stroke-linejoin="round"/>
<path d="M63.3 49C63.3 49.5523 62.8523 50 62.3 50C61.7477 50 61.3 49.5523 61.3 49C61.3 48.4477 61.7477 48 62.3 48C62.8523 48 63.3 48.4477 63.3 49Z" fill="black"/>
<path d="M56.225 43.5C56.225 44.1765 55.6765 44.725 55 44.725C54.3234 44.725 53.775 44.1765 53.775 43.5C53.775 42.8235 54.3234 42.275 55 42.275C55.6765 42.275 56.225 42.8235 56.225 43.5Z" fill="white" stroke="black" stroke-width="0.55"/>
<rect x="68.7" y="8.2" width="3.1" height="15.5" rx="1.55" transform="rotate(90 68.7 8.2)" fill="black"/>
<circle cx="47.65" cy="9.65" r="1.65" transform="rotate(-180 47.65 9.65)" fill="black"/>
</svg>
